<?xml version="1.0" encoding="utf-8"?>
<!-- Generator: Adobe Illustrator 24.0.3, SVG Export Plug-In . SVG Version: 6.00 Build 0)  -->
<svg version="1.1" id="Capa_6" xmlns="http://www.w3.org/2000/svg" xmlns:xlink="http://www.w3.org/1999/xlink" x="0px" y="0px"
	 viewBox="0 0 474.6 378.42" style="enable-background:new 0 0 474.6 378.42;" xml:space="preserve">
<style type="text/css">
	.st0{fill:#005DAB;}
	.st1{fill:#003E6E;}
	.st2{fill:#1A447D;}
	.st3{fill:#035EAA;}
	.st4{fill:#003461;}
	.st5{fill:#00427E;}
	.st6{fill:#002B54;}
	.st7{fill:#FFFFFF;}
	.st8{fill:#0060A2;}
	.st9{opacity:0.5;fill:#0060A2;}
	.st10{opacity:0.5;fill:#003E6E;}
	.st11{opacity:0.5;fill:#536569;}
	.st12{fill:#D1A84E;}
	.st13{fill:#173F6D;}
	.st14{fill:#19518E;}
	.st15{fill:#00A651;}
	.st16{fill:#CC620A;}
</style>
<path class="st0" d="M428.93,47.66h-0.95c-4.85,0-8.78,3.93-8.78,8.78c0,4.85,3.93,8.78,8.78,8.78h0.95c4.85,0,8.78-3.93,8.78-8.78
	C437.71,51.59,433.78,47.66,428.93,47.66z"/>
<path class="st0" d="M21.09,112.08h-0.95c-4.85,0-8.78,3.93-8.78,8.78c0,4.85,3.93,8.78,8.78,8.78h0.95c4.85,0,8.78-3.93,8.78-8.78
	C29.86,116.01,25.93,112.08,21.09,112.08z"/>
<path class="st1" d="M362.74,140.96c1.83,0,3.32-1.49,3.32-3.32c0-1.83-1.49-3.32-3.32-3.32h-15.39v-12.25h15.39
	c1.83,0,3.32-1.49,3.32-3.32c0-1.83-1.49-3.32-3.32-3.32h-15.39v-15.24c3.37-1.52,5.72-4.91,5.72-8.84c0-5.36-4.35-9.71-9.71-9.71
	s-9.71,4.35-9.71,9.71c0,3.94,2.35,7.32,5.72,8.84v15.24h-15.24c-1.83,0-3.32,1.49-3.32,3.32c0,1.83,1.49,3.32,3.32,3.32h15.24
	v12.25h-15.24c-1.83,0-3.32,1.49-3.32,3.32c0,1.83,1.49,3.32,3.32,3.32h15.24v7.87c0,56.2-17.93,94.77-17.93,94.77v46.36h43.82
	V243.6c0,0-17.31-37.26-17.91-91.89v-10.75H362.74z"/>
<rect x="365.06" y="204.38" class="st1" width="40.65" height="127.92"/>
<path class="st0" d="M404.28,159.61h-17.54c-5.55,0-10.05-4.5-10.05-10.05c0-5.55,4.5-10.05,10.05-10.05h13.73
	c-4.34-17.09-11.26-33.16-20.33-47.75h30.25c4.87,0,8.81-3.95,8.81-8.81c0-4.87-3.95-8.81-8.81-8.81h-31.27
	c-2.38-0.58-4.11-2.31-4.11-4.33c0-2.5,2.64-4.54,5.88-4.54h9.93c0.06,0,0.11-0.01,0.17-0.01h13.75c4.87,0,8.81-3.95,8.81-8.81
	c0-4.87-3.95-8.81-8.81-8.81h-13.92h-7.13h-43.01c-29.01-22.85-65.61-36.49-105.41-36.49c-1.72,0-3.42,0.03-5.13,0.08H114.27
	c-0.38-0.05-0.76-0.08-1.15-0.08H91.93c-4.9,0-8.87,3.97-8.87,8.87c0,4.9,3.97,8.87,8.87,8.87h21.19c0.16,0,0.31-0.01,0.46-0.02
	h22.3c3.23,0,5.88,2.04,5.88,4.54s-2.64,4.54-5.88,4.54h-6.16c-0.04,0-0.07,0-0.11,0h-15.6c-4.9,0-8.87,3.97-8.87,8.87
	c0,4.9,3.97,8.87,8.87,8.87h6.36c-17.16,15.67-31.1,34.8-40.72,56.28H53.27h-7.13h-1.04c-4.87,0-8.81,3.95-8.81,8.81
	s3.95,8.81,8.81,8.81h0.87c0.06,0,0.11,0.01,0.17,0.01h9.93c3.23,0,5.87,2.04,5.87,4.54c0,2.02-1.74,3.75-4.11,4.33H39.43
	c-4.87,0-8.81,3.95-8.81,8.81c0,4.87,3.95,8.82,8.81,8.82h27.29c-1.2,7.98-1.84,16.14-1.89,24.44h10.92
	c5.55,0,10.05,4.5,10.05,10.05c0,5.55-4.5,10.05-10.05,10.05H64.83C64.87,247.46,65,334.63,65,334.63s111.44,17.39,170.27,17.39
	c64.71,0,170.46-17.39,170.46-17.39s-0.02-123.63-0.02-153.05C405.71,174.13,405.21,166.81,404.28,159.61z"/>
<polygon class="st2" points="185.25,340.85 231,340.85 231,174.37 130.9,174.37 130.9,262.05 183.34,262.1 "/>
<g>
	<rect x="146.86" y="180.55" class="st3" width="5.2" height="81.5"/>
	<rect x="137.87" y="180.55" class="st3" width="5.2" height="81.5"/>
	<rect x="155.86" y="180.55" class="st3" width="5.2" height="81.5"/>
	<rect x="164.85" y="180.55" class="st3" width="5.2" height="81.5"/>
	<rect x="173.84" y="180.55" class="st3" width="5.2" height="81.5"/>
	<polygon class="st3" points="188.03,283.02 182.83,280.57 182.83,180.55 188.03,180.55 	"/>
	<polygon class="st3" points="197.03,287.42 191.82,284.94 191.82,180.55 197.03,180.55 	"/>
	<rect x="200.82" y="180.55" class="st3" width="5.2" height="45.39"/>
	<rect x="209.81" y="180.55" class="st3" width="5.2" height="45.39"/>
	<rect x="218.8" y="180.55" class="st3" width="5.2" height="45.39"/>
</g>
<rect x="91.73" y="262.05" class="st1" width="91.11" height="80.77"/>
<rect x="250.08" y="210.73" class="st4" width="93.18" height="127.56"/>
<rect x="65" y="220.82" class="st5" width="58" height="131.2"/>
<rect x="197.03" y="225.94" class="st5" width="80.22" height="116.88"/>
<rect x="240.23" y="342.82" class="st6" width="24.62" height="5.32"/>
<rect x="240.23" y="352.79" class="st6" width="24.62" height="5.32"/>
<rect x="276.3" y="289.63" class="st1" width="129.72" height="48.66"/>
<polygon class="st7" points="169.44,274.52 240.26,308.29 240.12,340.85 169.44,340.85 "/>
<rect x="45.11" y="296.03" class="st7" width="77.89" height="62.09"/>
<rect x="360.41" y="300.12" class="st7" width="65.48" height="58"/>
<g>
	<rect x="370.38" y="213.81" class="st6" width="35.35" height="5.35"/>
	<rect x="370.38" y="223.82" class="st6" width="35.35" height="5.35"/>
	<rect x="370.38" y="233.84" class="st6" width="35.35" height="5.35"/>
	<rect x="370.38" y="243.85" class="st6" width="35.35" height="5.35"/>
	<rect x="370.38" y="253.87" class="st6" width="35.35" height="5.35"/>
	<rect x="370.38" y="263.88" class="st6" width="35.35" height="5.35"/>
</g>
<path class="st7" d="M440.71,243.31h-50.69c-5.09,0-9.22,4.13-9.22,9.22c0,5.09,4.13,9.22,9.22,9.22h16.22
	c0.04,0,0.07,0.01,0.11,0.01h6.41c3.36,0,6.11,2.12,6.11,4.72s-2.75,4.72-6.11,4.72h-23.18c-0.16-0.01-0.32-0.02-0.48-0.02h-22.03
	c-5.09,0-9.22,4.13-9.22,9.22c0,5.09,4.13,9.22,9.22,9.22h22.03c0.41,0,0.8-0.04,1.2-0.09h58.34l-7.58-46.22
	C440.93,243.32,440.82,243.31,440.71,243.31z"/>
<path class="st8" d="M432.68,169.74c0,5.57-4.52,10.09-10.09,10.09h-42.13c-5.57,0-10.09-4.52-10.09-10.09l0,0
	c0-5.57,4.52-10.09,10.09-10.09h42.13C428.16,159.65,432.68,164.17,432.68,169.74L432.68,169.74z"/>
<path class="st8" d="M97.32,210.73c0,5.57-4.52,10.09-10.09,10.09H45.1c-5.57,0-10.09-4.52-10.09-10.09l0,0
	c0-5.57,4.52-10.09,10.09-10.09h42.13C92.8,200.64,97.32,205.16,97.32,210.73L97.32,210.73z"/>
<rect x="186.5" y="322.07" class="st1" width="5.43" height="5.79"/>
<rect x="185.61" y="303.29" class="st1" width="5.44" height="5.79"/>
<rect x="177.91" y="294.73" class="st1" width="5.43" height="5.79"/>
<rect x="214.9" y="322.07" class="st1" width="5.43" height="5.79"/>
<rect x="227.83" y="313.47" class="st1" width="5.43" height="5.79"/>
<rect x="205.67" y="233.18" class="st6" width="62.7" height="5.32"/>
<rect x="205.67" y="243.14" class="st6" width="62.7" height="5.32"/>
<rect x="205.67" y="253.11" class="st6" width="53.46" height="5.32"/>
<rect x="205.67" y="263.08" class="st6" width="59" height="5.32"/>
<rect x="205.67" y="273.05" class="st6" width="59" height="5.32"/>
<rect x="297.53" y="295.9" class="st6" width="53.46" height="5.32"/>
<rect x="297.53" y="305.87" class="st6" width="59" height="5.32"/>
<rect x="297.53" y="315.84" class="st6" width="59" height="5.32"/>
<rect x="205.67" y="283.02" class="st6" width="59" height="5.32"/>
<g>
	<rect x="65" y="236.18" class="st6" width="58" height="5.32"/>
	<rect x="65" y="246.14" class="st6" width="58" height="5.32"/>
	<rect x="65" y="256.11" class="st6" width="58" height="5.32"/>
	<rect x="65" y="266.08" class="st6" width="58" height="5.32"/>
	<rect x="65" y="276.05" class="st6" width="58" height="5.32"/>
	<rect x="65" y="286.02" class="st6" width="58" height="5.32"/>
</g>
<polygon class="st6" points="264.67,298.31 219.39,298.31 208.35,292.98 264.67,292.98 "/>
<polygon class="st6" points="264.85,308.28 240.23,308.28 229.07,302.95 264.85,302.95 "/>
<rect x="240.23" y="312.92" class="st6" width="24.62" height="5.32"/>
<rect x="224" y="217.69" class="st1" width="16.91" height="8.25"/>
<path class="st9" d="M238.85,80.18c0.43,0.12,0.43,0.32,0,0.44l-1.14,1.14c-0.12,0.44-0.32,0.44-0.44,0l-1.14-1.14
	c-0.44-0.12-0.44-0.32,0-0.44l1.14-1.14c0.12-0.44,0.32-0.44,0.44,0L238.85,80.18z"/>
<path class="st9" d="M269.67,77.13c0.43,0.12,0.43,0.32,0,0.44l-1.14,1.14c-0.12,0.44-0.32,0.44-0.44,0l-1.14-1.14
	c-0.44-0.12-0.44-0.32,0-0.44l1.14-1.14c0.12-0.44,0.32-0.44,0.44,0L269.67,77.13z"/>
<path class="st9" d="M232.58,99.4c0.43,0.12,0.43,0.32,0,0.44l-1.14,1.14c-0.12,0.44-0.32,0.44-0.44,0l-1.14-1.14
	c-0.44-0.12-0.44-0.32,0-0.44l1.14-1.14c0.12-0.44,0.32-0.44,0.44,0L232.58,99.4z"/>
<path class="st9" d="M307.03,83.11c0.44,0.12,0.44,0.32,0,0.44l-1.14,1.14c-0.12,0.44-0.32,0.44-0.44,0l-1.14-1.14
	c-0.44-0.12-0.44-0.32,0-0.44l1.14-1.14c0.12-0.44,0.32-0.44,0.44,0L307.03,83.11z"/>
<path class="st9" d="M298.58,100.87c0.43,0.12,0.43,0.32,0,0.44l-1.14,1.14c-0.12,0.44-0.32,0.44-0.44,0l-1.14-1.14
	c-0.44-0.12-0.44-0.32,0-0.44l1.14-1.14c0.12-0.44,0.32-0.44,0.44,0L298.58,100.87z"/>
<path class="st9" d="M265.76,138.26c0.44,0.12,0.44,0.32,0,0.44l-1.14,1.14c-0.12,0.44-0.32,0.44-0.44,0l-1.14-1.14
	c-0.44-0.12-0.44-0.32,0-0.44l1.15-1.14c0.12-0.44,0.32-0.44,0.44,0L265.76,138.26z"/>
<path class="st10" d="M276.05,102.23c0.82,0.23,0.82,0.6,0,0.83l-2.15,2.15c-0.23,0.82-0.6,0.82-0.83,0l-2.15-2.15
	c-0.82-0.23-0.82-0.6,0-0.83l2.15-2.15c0.23-0.82,0.6-0.82,0.83,0L276.05,102.23z"/>
<path class="st9" d="M324.82,92.75c0.82,0.23,0.82,0.6,0,0.83l-2.15,2.15c-0.23,0.82-0.6,0.82-0.83,0l-2.15-2.15
	c-0.82-0.23-0.82-0.6,0-0.83l2.15-2.15c0.23-0.82,0.6-0.82,0.83,0L324.82,92.75z"/>
<path class="st10" d="M217.98,131.97c0.82,0.23,0.82,0.6,0,0.83l-2.15,2.15c-0.23,0.82-0.6,0.82-0.83,0l-2.15-2.15
	c-0.82-0.23-0.82-0.6,0-0.83l2.15-2.15c0.23-0.82,0.6-0.82,0.83,0L217.98,131.97z"/>
<path class="st10" d="M245.26,115.36c0.82,0.23,0.82,0.6,0,0.83l-2.15,2.15c-0.23,0.82-0.6,0.82-0.83,0l-2.15-2.15
	c-0.82-0.23-0.82-0.6,0-0.83l2.15-2.15c0.23-0.82,0.6-0.82,0.83,0L245.26,115.36z"/>
<rect x="191.82" y="160.89" class="st2" width="32.18" height="13.48"/>
<path class="st7" d="M437.23,185.89"/>
<g>
	<path class="st7" d="M345.62,204.24c0,9.02,7.31,16.33,16.33,16.33c9.02,0,16.33-7.31,16.33-16.33c0-9.02-7.31-16.33-16.33-16.33
		C352.93,187.92,345.62,195.23,345.62,204.24z"/>
	<path class="st11" d="M361.33,193.37h1.24c6.22,0.02,10.61,4.83,10.61,12.25c0,3.08-2.42,3.08-4.41,5.11
		c-2.05,2.09,0.32,5.21-6.2,5.23h-1.24c-6.51-0.01-4.15-3.14-6.2-5.23c-2-2.04-4.41-2.04-4.41-5.11
		C350.72,198.21,355.11,193.39,361.33,193.37z"/>
	<path class="st8" d="M365.06,204.38c0,1.5,1.21,2.71,2.71,2.71c1.5,0,2.71-1.21,2.71-2.71c0-1.5-1.21-2.71-2.71-2.71
		C366.28,201.67,365.06,202.88,365.06,204.38z"/>
	<path class="st8" d="M353.51,204.38c0,1.5,1.21,2.71,2.71,2.71c1.5,0,2.71-1.21,2.71-2.71c0-1.5-1.21-2.71-2.71-2.71
		C354.72,201.67,353.51,202.88,353.51,204.38z"/>
	<path class="st7" d="M375.17,211.46c0,0,2.25,4.7,3.11,6.55c0.58,1.24,0,2.13-1.35,1.72c-1.72-0.52-7.59-2.5-7.59-2.5
		L375.17,211.46z"/>
	<path class="st8" d="M363.82,209.64c0.34-0.4-1.15-2.46-1.75-2.46s-2.08,2.12-1.74,2.46c0.17,0.17,0.96-0.66,1.74-0.65
		C362.86,209,363.65,209.84,363.82,209.64z"/>
</g>
<g>
	<g>
		<path class="st7" d="M275.8,219.83c0,9.02-7.31,16.33-16.33,16.33c-9.02,0-16.33-7.31-16.33-16.33c0-9.02,7.31-16.33,16.33-16.33
			C268.49,203.5,275.8,210.81,275.8,219.83z"/>
		<path class="st7" d="M245.92,226.53c0,0-2.25,4.71-3.11,6.55c-0.57,1.24,0,2.13,1.35,1.72c1.72-0.52,7.59-2.5,7.59-2.5
			L245.92,226.53z"/>
	</g>
	<g>
		<path class="st8" d="M249.17,216.65c0,0-4.46,9.14-0.84,10.99c3.61,1.84,9.31-9.23,9.31-9.23s-0.74-7.08-4.36-6.59
			C249.66,212.32,249.17,216.65,249.17,216.65z"/>
		<path class="st8" d="M269.78,216.65c0,0,4.46,9.14,0.84,10.99c-3.61,1.84-9.31-9.23-9.31-9.23s0.74-7.08,4.36-6.59
			C269.3,212.32,269.78,216.65,269.78,216.65z"/>
		<rect x="253.72" y="211.81" class="st8" width="11.71" height="11.72"/>
		<g>
			<circle class="st7" cx="265.19" cy="213.82" r="0.91"/>
			<path class="st7" d="M264.19,215.78c0,0.5-0.41,0.91-0.91,0.91c-0.5,0-0.91-0.41-0.91-0.91c0-0.5,0.41-0.91,0.91-0.91
				C263.78,214.87,264.19,215.28,264.19,215.78z"/>
			<path class="st7" d="M268.03,215.75c0,0.5-0.41,0.91-0.91,0.91c-0.5,0-0.91-0.41-0.91-0.91c0-0.5,0.41-0.91,0.91-0.91
				C267.62,214.84,268.03,215.25,268.03,215.75z"/>
			<path class="st7" d="M266.13,217.71c0,0.5-0.41,0.91-0.91,0.91c-0.5,0-0.91-0.41-0.91-0.91c0-0.5,0.41-0.91,0.91-0.91
				C265.72,216.8,266.13,217.21,266.13,217.71z"/>
		</g>
		<g>
			<path class="st7" d="M256.6,215.75c0,1.38-1.12,2.5-2.5,2.5c-1.38,0-2.5-1.12-2.5-2.5c0-1.38,1.12-2.5,2.5-2.5
				C255.48,213.25,256.6,214.37,256.6,215.75z"/>
		</g>
	</g>
</g>
<g>
	<g>
		<path class="st2" d="M290.42,103.34c0-7.6-20.98-24.38-61.47-24.38c-36.56,0-44.41,15.6-44.41,24.38
			c0,8.77,7.85,24.38,44.41,24.38C269.44,127.71,290.42,110.94,290.42,103.34z"/>
		<path class="st2" d="M266.34,85.71c0,0,10.89-3.49,15.98-2.18c5.08,1.31,0,12.64,0,12.64L266.34,85.71z"/>
		<path class="st2" d="M266.34,121.45c0,0,10.89,3.48,15.98,2.18c5.08-1.31,0-12.63,0-12.63L266.34,121.45z"/>
	</g>
	<path class="st2" d="M227.72,129.74c0,3.64-2.95,6.59-6.59,6.59h-15.52c-3.64,0-6.59-2.95-6.59-6.59v-11.63
		c0-3.64,2.95-6.59,6.59-6.59h10.92c3.64,0,11.18,2.95,11.18,6.59V129.74z"/>
	<path class="st0" d="M207.33,129.3c0,1.38-1.12,2.5-2.5,2.5c-1.38,0-2.5-1.12-2.5-2.5c0-1.38,1.12-2.5,2.5-2.5
		C206.21,126.8,207.33,127.92,207.33,129.3z"/>
	<path class="st0" d="M215.48,129.3c0,1.38-1.12,2.5-2.5,2.5c-1.38,0-2.5-1.12-2.5-2.5c0-1.38,1.12-2.5,2.5-2.5
		C214.36,126.8,215.48,127.92,215.48,129.3z"/>
	<path class="st0" d="M223.39,129.3c0,1.38-1.12,2.5-2.5,2.5c-1.38,0-2.5-1.12-2.5-2.5c0-1.38,1.12-2.5,2.5-2.5
		C222.27,126.8,223.39,127.92,223.39,129.3z"/>
</g>
<g>
	<rect x="228.76" y="97.28" class="st8" width="3.03" height="12.11"/>
	<path class="st8" d="M266.29,97.28v8.32h3.03v-8.32H266.29z M266.29,109.39h3.03v-3.03h-3.03V109.39z"/>
	<polygon class="st8" points="197.84,97.28 197.84,100.31 200.87,100.31 200.87,109.39 203.89,109.39 203.89,100.31 206.92,100.31 
		206.92,97.28 	"/>
	<path class="st8" d="M261.74,97.28L261.74,97.28L261.74,97.28l-2.99,0v0l0,0c-1.67,0-3.03,1.36-3.03,3.03v0h0v9.08h3.03v-3.03h2.99
		v3.03h3.03v-9.08l0,0v0C264.76,98.64,263.41,97.28,261.74,97.28z M258.74,103.34v-3.03l0,0l0,0h2.99l0,0l0,0v3.03H258.74z"/>
	<path class="st8" d="M213.67,97.28L213.67,97.28L213.67,97.28l-2.99,0v0h0c-1.67,0-3.03,1.36-3.03,3.03v0l0,0v9.08h3.03v-3.03h2.99
		v3.03h3.03v-9.08l0,0v0C216.69,98.64,215.34,97.28,213.67,97.28z M210.67,103.34v-3.03l0,0l0,0h2.99l0,0h0v3.03H210.67z"/>
	<path class="st8" d="M254.36,106.36v-4.1h-4.56v2.27h1.54v1.83h0v0h-3v0l0,0v-6.05l0,0l0,0h5.2v-3.03h-5.2v0l0,0
		c-1.67,0-3.03,1.36-3.03,3.03v0l0,0v6.05l0,0v0c0,1.67,1.35,3.02,3.02,3.03v0h3.03v0C253.02,109.38,254.36,108.03,254.36,106.36
		L254.36,106.36L254.36,106.36z"/>
	<path class="st8" d="M227.3,100.31c0-1.67-1.36-3.03-3.03-3.03l0,0l0,0h-6.05v12.11h3.03v-3.03h1.19l1.28,3.03h3.03l-1.37-3.24
		c1.12-0.44,1.92-1.53,1.93-2.81l0,0V100.31L227.3,100.31L227.3,100.31z M224.27,103.33L224.27,103.33L224.27,103.33l-3.03,0.01
		v-3.03h3.03l0,0h0V103.33z"/>
	<polygon class="st8" points="240.93,97.28 240.93,104.53 236.41,97.28 233.36,97.28 233.36,109.39 236.39,109.39 236.39,102.1 
		240.93,109.39 243.95,109.39 243.95,97.28 	"/>
</g>
<g>
	
		<ellipse transform="matrix(0.8941 -0.4479 0.4479 0.8941 -5.5639 83.5401)" class="st12" cx="173.84" cy="53.53" rx="8.07" ry="8.07"/>
	<g>
		<path class="st12" d="M173.84,42.4L173.84,42.4c-0.53,0-0.97-0.43-0.97-0.97v-6.88c0-0.53,0.43-0.97,0.97-0.97l0,0
			c0.53,0,0.97,0.43,0.97,0.97v6.88C174.81,41.97,174.37,42.4,173.84,42.4z"/>
		<path class="st12" d="M173.84,73.48L173.84,73.48c-0.53,0-0.97-0.43-0.97-0.97v-6.88c0-0.53,0.43-0.97,0.97-0.97l0,0
			c0.53,0,0.97,0.43,0.97,0.97v6.88C174.81,73.05,174.37,73.48,173.84,73.48z"/>
	</g>
	<g>
		<path class="st12" d="M181.71,45.66L181.71,45.66c-0.38-0.38-0.38-0.99,0-1.37l4.87-4.87c0.38-0.38,0.99-0.38,1.37,0l0,0
			c0.38,0.38,0.38,0.99,0,1.37l-4.87,4.87C182.7,46.04,182.09,46.04,181.71,45.66z"/>
		<path class="st12" d="M159.74,67.64L159.74,67.64c-0.38-0.38-0.38-0.99,0-1.37l4.87-4.87c0.38-0.38,0.99-0.38,1.37,0l0,0
			c0.38,0.38,0.38,0.99,0,1.37l-4.87,4.87C160.73,68.02,160.11,68.02,159.74,67.64z"/>
	</g>
	<g>
		<path class="st12" d="M184.97,53.53L184.97,53.53c0-0.53,0.43-0.97,0.97-0.97h6.88c0.53,0,0.97,0.43,0.97,0.97l0,0
			c0,0.53-0.43,0.97-0.97,0.97h-6.88C185.41,54.5,184.97,54.07,184.97,53.53z"/>
		<path class="st12" d="M153.89,53.53L153.89,53.53c0-0.53,0.43-0.97,0.97-0.97h6.88c0.53,0,0.97,0.43,0.97,0.97l0,0
			c0,0.53-0.43,0.97-0.97,0.97h-6.88C154.33,54.5,153.89,54.07,153.89,53.53z"/>
	</g>
	<g>
		<path class="st12" d="M181.71,61.41L181.71,61.41c0.38-0.38,0.99-0.38,1.37,0l4.87,4.87c0.38,0.38,0.38,0.99,0,1.37l0,0
			c-0.38,0.38-0.99,0.38-1.37,0l-4.87-4.87C181.33,62.4,181.33,61.78,181.71,61.41z"/>
		<path class="st12" d="M159.74,39.43L159.74,39.43c0.38-0.38,0.99-0.38,1.37,0l4.87,4.87c0.38,0.38,0.38,0.99,0,1.37l0,0
			c-0.38,0.38-0.99,0.38-1.37,0l-4.87-4.87C159.36,40.42,159.36,39.81,159.74,39.43z"/>
	</g>
</g>
<path class="st13" d="M149.37,127.99c-0.02,0-0.04,0.01-0.06,0.01c0.36-0.82,0.56-1.73,0.56-2.69c0-3.74-3.03-6.78-6.78-6.78
	c-1.32,0-2.55,0.38-3.6,1.04c-1.41-3.43-4.78-5.84-8.72-5.84c-5.21,0-9.43,4.22-9.43,9.43c0,0.39,0.03,0.78,0.08,1.16
	c-0.03,0-0.05,0-0.08,0c-3.49,0-6.32,2.83-6.32,6.32c0,3.49,2.83,6.32,6.32,6.32h28.02c2.48,0,4.48-2.01,4.48-4.48
	C153.85,129.99,151.85,127.99,149.37,127.99z"/>
<path class="st13" d="M280.41,152.7c-0.01,0-0.01,0-0.02,0c0.1-0.22,0.15-0.47,0.15-0.73c0-1.02-0.83-1.85-1.85-1.85
	c-0.36,0-0.7,0.11-0.98,0.28c-0.39-0.94-1.31-1.6-2.38-1.6c-1.42,0-2.58,1.15-2.58,2.58c0,0.11,0.01,0.21,0.02,0.32
	c-0.01,0-0.01,0-0.02,0c-0.95,0-1.73,0.77-1.73,1.73c0,0.95,0.77,1.73,1.73,1.73h7.65c0.68,0,1.22-0.55,1.22-1.22
	C281.64,153.25,281.09,152.7,280.41,152.7z"/>
<path class="st14" d="M138.14,133.88c-0.02,0-0.04,0.01-0.07,0.01c0.43-0.99,0.67-2.09,0.67-3.24c0-4.51-3.66-8.17-8.17-8.17
	c-1.59,0-3.08,0.46-4.34,1.25c-1.7-4.13-5.76-7.05-10.51-7.05c-6.28,0-11.37,5.09-11.37,11.37c0,0.47,0.04,0.94,0.09,1.4
	c-0.03,0-0.06,0-0.09,0c-4.21,0-7.62,3.41-7.62,7.62s3.41,7.62,7.62,7.62h33.78c2.99,0,5.4-2.42,5.4-5.4
	C143.54,136.3,141.12,133.88,138.14,133.88z"/>
<path class="st13" d="M268.84,48.71c0.01,0,0.02,0,0.04,0c-0.23-0.53-0.35-1.11-0.35-1.72c0-2.39,1.94-4.33,4.33-4.33
	c0.85,0,1.63,0.25,2.3,0.66c0.9-2.19,3.05-3.73,5.57-3.73c3.33,0,6.02,2.7,6.02,6.02c0,0.25-0.02,0.5-0.05,0.74
	c0.02,0,0.03,0,0.05,0c2.23,0,4.04,1.81,4.04,4.04c0,2.23-1.81,4.04-4.04,4.04h-17.9c-1.58,0-2.86-1.28-2.86-2.86
	C265.97,49.99,267.26,48.71,268.84,48.71z"/>
<path class="st14" d="M354.76,87.06c-0.01,0-0.03,0-0.04,0c0.27-0.63,0.43-1.33,0.43-2.07c0-2.88-2.34-5.22-5.22-5.22
	c-1.02,0-1.97,0.3-2.77,0.8c-1.09-2.64-3.68-4.5-6.72-4.5c-4.01,0-7.26,3.25-7.26,7.26c0,0.3,0.02,0.6,0.06,0.89
	c-0.02,0-0.04,0-0.06,0c-2.69,0-4.87,2.18-4.87,4.87c0,2.69,2.18,4.87,4.87,4.87h21.59c1.91,0,3.45-1.55,3.45-3.45
	C358.22,88.61,356.67,87.06,354.76,87.06z"/>
<path class="st14" d="M310.87,52.27c-0.02,0-0.03,0-0.05,0c0.29-0.66,0.45-1.39,0.45-2.15c0-3-2.43-5.43-5.43-5.43
	c-1.06,0-2.05,0.31-2.88,0.83c-1.13-2.75-3.83-4.68-6.99-4.68c-4.17,0-7.55,3.38-7.55,7.55c0,0.32,0.03,0.62,0.06,0.93
	c-0.02,0-0.04,0-0.06,0c-2.8,0-5.06,2.27-5.06,5.06c0,2.8,2.27,5.06,5.06,5.06h22.45c1.98,0,3.59-1.61,3.59-3.59
	C314.46,53.88,312.85,52.27,310.87,52.27z"/>
<path class="st9" d="M116.26,84.51c0.43,0.12,0.43,0.32,0,0.44l-1.14,1.14c-0.12,0.44-0.32,0.44-0.44,0l-1.14-1.14
	c-0.44-0.12-0.44-0.32,0-0.44l1.14-1.14c0.12-0.44,0.32-0.44,0.44,0L116.26,84.51z"/>
<rect x="329.91" y="218.01" class="st3" width="3.42" height="7.28"/>
<rect x="304.81" y="238.27" class="st3" width="3.42" height="7.28"/>
<rect x="318.22" y="238.27" class="st3" width="3.42" height="7.28"/>
<rect x="304.81" y="218.01" class="st3" width="3.42" height="7.28"/>
<rect x="288.71" y="218.01" class="st3" width="3.42" height="7.28"/>
<rect x="412.03" y="308.28" class="st3" width="3.42" height="7.28"/>
<rect x="386.94" y="308.28" class="st3" width="3.42" height="7.28"/>
<rect x="399.81" y="319.7" class="st3" width="3.42" height="7.28"/>
<rect x="370.84" y="308.28" class="st3" width="3.42" height="7.28"/>
<rect x="329.91" y="253.39" class="st3" width="3.42" height="7.28"/>
<rect x="288.71" y="253.39" class="st3" width="3.42" height="7.28"/>
<rect x="304.81" y="273.65" class="st3" width="3.42" height="7.28"/>
<rect x="318.22" y="273.64" class="st3" width="3.42" height="7.28"/>
<rect x="304.81" y="253.39" class="st3" width="3.42" height="7.28"/>
<rect x="141.84" y="273.04" class="st3" width="7.33" height="7.28"/>
<rect x="156.92" y="273.04" class="st3" width="7.33" height="7.28"/>
<rect x="141.84" y="291.06" class="st3" width="7.33" height="7.28"/>
<rect x="127.23" y="304.63" class="st3" width="7.33" height="7.28"/>
<rect x="156.92" y="291.06" class="st3" width="7.33" height="7.28"/>
<rect x="109.07" y="302.55" class="st3" width="7.33" height="7.28"/>
<rect x="94" y="320.57" class="st3" width="7.33" height="7.28"/>
<rect x="109.07" y="320.57" class="st3" width="7.33" height="7.28"/>
<rect x="80.07" y="302.55" class="st3" width="7.33" height="7.28"/>
<rect x="65" y="320.57" class="st3" width="7.33" height="7.28"/>
<g>
	<g>
		<path class="st7" d="M110.79,262.05c0,9.02,7.31,16.33,16.33,16.33c9.02,0,16.33-7.31,16.33-16.33c0-9.02-7.31-16.33-16.33-16.33
			C118.1,245.72,110.79,253.03,110.79,262.05z"/>
		<g>
			<path class="st15" d="M115.91,262.05c0,6.19,5.02,11.21,11.21,11.21c6.19,0,11.21-5.02,11.21-11.21
				c0-6.19-5.02-11.21-11.21-11.21C120.93,250.84,115.91,255.86,115.91,262.05z"/>
		</g>
		<path class="st7" d="M140.34,269.27c0,0,2.25,4.71,3.11,6.54c0.57,1.24,0,2.13-1.35,1.72c-1.72-0.52-7.59-2.5-7.59-2.5
			L140.34,269.27z"/>
	</g>
	<path class="st7" d="M135.38,262.89h-16.51c0,0,1.45,6.37,8.26,6.37C133.93,269.27,135.38,262.89,135.38,262.89z"/>
	<g>
		<g>
			<rect x="132.34" y="262.36" class="st15" width="1.45" height="5.77"/>
		</g>
		<g>
			<rect x="129.4" y="262.36" class="st15" width="1.45" height="6.79"/>
		</g>
		<g>
			<rect x="120.43" y="262.36" class="st15" width="1.45" height="5.77"/>
		</g>
		<g>
			<rect x="123.37" y="262.36" class="st15" width="1.45" height="6.79"/>
		</g>
		<g>
			<rect x="126.4" y="262.36" class="st15" width="1.45" height="7.88"/>
		</g>
	</g>
	<g>
		<path class="st7" d="M130.13,260.79c-0.19,0-0.38-0.07-0.53-0.22c-0.29-0.29-0.29-0.77,0-1.06l2.62-2.62
			c0.14-0.14,0.33-0.22,0.53-0.22l0,0c0.2,0,0.39,0.08,0.53,0.22l2.62,2.62c0.29,0.29,0.29,0.77,0,1.06c-0.29,0.29-0.77,0.29-1.06,0
			l-2.09-2.09l-2.09,2.09C130.51,260.72,130.32,260.79,130.13,260.79z"/>
	</g>
	<g>
		<path class="st7" d="M123.78,260.95c-0.19,0-0.38-0.07-0.53-0.22l-2.09-2.09l-2.09,2.09c-0.29,0.29-0.77,0.29-1.06,0
			c-0.29-0.29-0.29-0.77,0-1.06l2.62-2.62c0.29-0.29,0.77-0.29,1.06,0l2.62,2.62c0.29,0.29,0.29,0.77,0,1.06
			C124.16,260.88,123.97,260.95,123.78,260.95z"/>
	</g>
</g>
<g>
	<g>
		<path class="st7" d="M181.61,171.2c0,9.02-7.31,16.33-16.33,16.33c-9.02,0-16.33-7.31-16.33-16.33c0-9.02,7.31-16.33,16.33-16.33
			C174.3,154.87,181.61,162.18,181.61,171.2z"/>
		<path class="st7" d="M151.73,177.9c0,0-2.25,4.71-3.11,6.55c-0.57,1.24,0,2.13,1.35,1.72c1.72-0.52,7.59-2.5,7.59-2.5
			L151.73,177.9z"/>
	</g>
	<path class="st16" d="M161.01,163.13l4.69,9.45c-0.68-0.04-1.38,0.07-2.04,0.4c-1.98,0.98-2.79,3.38-1.81,5.36
		c0.98,1.98,3.38,2.79,5.36,1.81c1.98-0.98,2.79-3.38,1.81-5.36l-4.44-8.96l3.58-1.78l-1.78-3.58L161.01,163.13z"/>
</g>
<rect x="264.75" y="284.03" class="st7" width="23.11" height="66.14"/>
<rect x="259.14" y="283.02" class="st7" width="34.52" height="14.61"/>
<rect x="45.08" y="317.76" class="st7" width="380.8" height="40.36"/>
</svg>
