<?xml version="1.0" encoding="UTF-8"?>
<svg width="247px" height="190px" viewBox="0 0 247 190" version="1.1" xmlns="http://www.w3.org/2000/svg" xmlns:xlink="http://www.w3.org/1999/xlink">
    <!-- Generator: Sketch 52.3 (67297) - http://www.bohemiancoding.com/sketch -->
    <title>Artboard</title>
    <desc>Created with Sketch.</desc>
    <defs>
        <polygon id="path-1" points="3.18746905 0.50916003 0.218928667 0.50916003 0.218928667 2.3559006 3.18746905 2.3559006"></polygon>
        <polygon id="path-3" points="3.10446855 0.50916003 0.135674568 0.50916003 0.135674568 2.3559006 3.10446855 2.3559006"></polygon>
        <polygon id="path-5" points="3.32305101 0.50916003 0.354510634 0.50916003 0.354510634 2.3559006 3.32305101 2.3559006"></polygon>
        <polygon id="path-7" points="3.24009825 0.50916003 0.271313913 0.50916003 0.271313913 2.3559006 3.24009825 2.3559006"></polygon>
        <polygon id="path-9" points="3.02127183 0.50916003 0.0524778471 0.50916003 0.0524778471 2.3559006 3.02127183 2.3559006"></polygon>
        <polygon id="path-11" points="3.5118456 0.50916003 0.543051618 0.50916003 0.543051618 2.3559006 3.5118456 2.3559006"></polygon>
        <polygon id="path-13" points="3.42864888 0.50916003 0.459854896 0.50916003 0.459854896 2.3559006 3.42864888 2.3559006"></polygon>
        <polygon id="path-15" points="3.34545216 0.50916003 0.376668738 0.50916003 0.376668738 2.3559006 3.34545216 2.3559006"></polygon>
    </defs>
    <g id="Artboard" stroke="none" stroke-width="1" fill="none" fill-rule="evenodd">
        <g id="Tuto_1" transform="translate(1.000000, 2.000000)">
            <path d="M120.5,0 L134.5,0 C186.690909,0 229,42.3090911 229,94.5 C229,146.690909 186.690909,189 134.5,189 L120.5,189 C68.3090911,189 26,146.690909 26,94.5 C26,42.3090911 68.3090911,0 120.5,0 Z" id="Rectangle-3-Copy-18" fill="#F9F9F9"></path>
            <path d="M239.781465,65 L239.218535,65 C236.336125,65 234,67.2386104 234,69.9994306 C234,72.7613896 236.336125,75 239.218535,75 L239.781465,75 C242.66328,75 245,72.7613896 245,69.9994306 C245,67.2386104 242.66328,65 239.781465,65 Z" id="Fill-1" fill="#002B54"></path>
            <path d="M5.78146448,102 L5.21853554,102 C2.33612538,102 0,104.23861 0,107 C0,109.76139 2.33612538,112 5.21853554,112 L5.78146448,112 C8.66328021,112 11,109.76139 11,107 C11,104.23861 8.66328021,102 5.78146448,102" id="Fill-3" fill="#002B54"></path>
            <path d="M210.996081,80.0402629 C209.633119,79.7073354 208.635719,78.7199936 208.635719,77.5627558 C208.635719,76.1337988 210.153627,74.9651202 212.007828,74.9651202 L217.708164,74.9651202 C217.741448,74.9651202 217.773012,74.961116 217.805149,74.9605439 L225.695404,74.9605439 C228.489045,74.9605439 230.753569,72.7027004 230.753569,69.9180076 C230.753569,67.1333148 228.489045,64.8760433 225.695404,64.8760433 L217.708164,64.8760433 L213.614689,64.8760433 L188.932174,64.8760433 C172.286255,51.8020594 151.279432,44 128.442512,44 C127.457736,44 126.476978,44.0188773 125.499089,44.0474793 L59.0049359,44.0474793 C58.7885837,44.0194494 58.5687883,44 58.3438278,44 L46.1844904,44 C43.3730596,44 41.0936142,46.2721445 41.0936142,49.0739986 C41.0936142,51.8769966 43.3730596,54.1491412 46.1844904,54.1491412 L58.3438278,54.1491412 C58.4339268,54.1491412 58.5205825,54.1405606 58.6089597,54.1359843 L71.4053023,54.1359843 C73.2595038,54.1359843 74.7774123,55.3046629 74.7774123,56.7341919 C74.7774123,58.1631489 73.2595038,59.3323995 71.4053023,59.3323995 L67.8696369,59.3323995 C67.8495513,59.3323995 67.8288916,59.3352598 67.8088059,59.3352598 L58.8568753,59.3352598 C56.0448707,59.3352598 53.766573,61.6068322 53.766573,64.4104023 C53.766573,67.2122564 56.0448707,69.484401 58.8568753,69.484401 L62.5067425,69.484401 C52.6607092,78.4477024 44.6596953,89.3896917 39.1361148,101.67998 L23.9960524,101.67998 L19.9020032,101.67998 L19.3045957,101.67998 C16.5109551,101.67998 14.2464307,103.93668 14.2464307,106.721372 C14.2464307,109.506637 16.5109551,111.763909 19.3045957,111.763909 L19.8055916,111.763909 C19.8377288,111.764481 19.8692921,111.769057 19.9020032,111.769057 L25.6029121,111.769057 C27.4571135,111.769057 28.9738744,112.937736 28.9738744,114.366693 C28.9738744,115.524503 27.9776213,116.511272 26.6129383,116.8442 L16.058165,116.8442 C13.2645246,116.8442 11,119.100899 11,121.885592 C11,124.670285 13.2645246,126.928128 16.058165,126.928128 L31.7175874,126.928128 C31.0031088,131.681784 30.6295139,136.546988 30.6295139,141.499714 C30.6295139,161.692742 30.7282209,189.050502 30.7282209,189.050502 C30.7282209,189.050502 94.6795185,188 128.442512,188 C165.577615,188 226.267561,189.051645 226.267561,189.051645 C226.267561,189.051645 226.256084,158.331432 226.256084,141.499714 C226.256084,122.644118 220.880564,105.042434 211.582011,90.1241915 L228.941835,90.1241915 C231.735476,90.1241915 234,87.86692 234,85.0822272 C234,82.2969624 231.735476,80.0402629 228.941835,80.0402629 L210.996081,80.0402629 Z" id="Fill-5" fill="#002B54"></path>
            <g id="Group-9" transform="translate(177.000000, 20.000000)" fill="#003E6E">
                <g id="Fill-7-Clipped">
                    <path d="M24.3154754,34.1336756 C25.3671967,34.1336756 26.2192459,33.2816353 26.2192459,32.2306326 C26.2192459,31.1802034 25.3671967,30.3281631 24.3154754,30.3281631 L15.4834262,30.3281631 L15.4834262,23.301984 L24.3154754,23.301984 C25.3671967,23.301984 26.2192459,22.4493703 26.2192459,21.398941 C26.2192459,20.3479384 25.3671967,19.4958981 24.3154754,19.4958981 L15.4834262,19.4958981 L15.4834262,10.7570377 C17.416459,9.88435577 18.7636721,7.9446166 18.7636721,5.6872258 C18.7636721,2.61277075 16.2700656,0.120868169 13.1935082,0.120868169 C10.1175246,0.120868169 7.62334426,2.61277075 7.62334426,5.6872258 C7.62334426,7.9446166 8.97113115,9.88435577 10.9041639,10.7570377 L10.9041639,19.4958981 L2.15932787,19.4958981 C1.10760656,19.4958981 0.254983607,20.3479384 0.254983607,21.398941 C0.254983607,22.4493703 1.10760656,23.301984 2.15932787,23.301984 L10.9041639,23.301984 L10.9041639,30.3281631 L2.15932787,30.3281631 C1.10760656,30.3281631 0.254983607,31.1802034 0.254983607,32.2306326 C0.254983607,33.2816353 1.10760656,34.1336756 2.15932787,34.1336756 L10.9041639,34.1336756 L10.9041639,38.6473104 C10.9024426,70.8700305 0.617606557,92.9869559 0.617606557,92.9869559 L0.617606557,152.73528 L25.7602295,152.73528 L25.7602295,92.9869559 C25.7602295,92.9869559 15.8259672,71.6228763 15.4834262,40.2986403 L15.4834262,34.1336756 L24.3154754,34.1336756 Z" id="Fill-7"></path>
                </g>
            </g>
            <g id="Fill-10-Clipped" transform="translate(197.000000, 119.000000)" fill="#003E6E">
                <polygon id="Fill-10" points="0 68 23 68 23 0 0 0"></polygon>
            </g>
            <g id="Fill-12-Clipped" transform="translate(199.000000, 153.000000)" fill="#002B54">
                <path d="M6.480984,0.603764 L33.632951,0.603764 C36.81623,0.603764 39.397049,3.18282 39.397049,6.363923 C39.397049,9.5456 36.81623,12.124083 33.632951,12.124083 L6.480984,12.124083 C3.297705,12.124083 0.716885,9.5456 0.716885,6.363923 C0.716885,3.18282 3.297705,0.603764 6.480984,0.603764" id="Fill-12"></path>
            </g>
            <g id="Fill-13-Clipped" transform="translate(200.000000, 128.000000)" fill="#FFFFFF">
                <path d="M6.270779,0.86885 L33.422172,0.86885 C36.606025,0.86885 39.18627,3.447906 39.18627,6.629009 C39.18627,9.810686 36.606025,12.389169 33.422172,12.389169 L6.270779,12.389169 C3.086926,12.389169 0.50668,9.810686 0.50668,6.629009 C0.50668,3.447906 3.086926,0.86885 6.270779,0.86885" id="Fill-13"></path>
            </g>
            <polygon id="Fill-14" fill="#003E6E" points="99.9511385 185.904297 126 185.904297 126 123 69 123 69 184.271453 98.8629458 184.299551"></polygon>
            <g id="Fill-15-Clipped" transform="translate(77.000000, 128.000000)" fill="#002B54">
                <polygon id="Fill-15" points="0.747623 47.513986 3.7329508 47.513986 3.7329508 0.781926 0.747623 0.781926"></polygon>
            </g>
            <g id="Fill-17-Clipped" transform="translate(82.000000, 128.000000)" fill="#002B54">
                <polygon id="Fill-17" points="0.9081148 47.513986 3.8928689 47.513986 3.8928689 0.781926 0.9081148 0.781926"></polygon>
            </g>
            <g id="Fill-18-Clipped" transform="translate(88.000000, 128.000000)" fill="#002B54">
                <polygon id="Fill-18" points="0.067459 47.513986 3.0522131 47.513986 3.0522131 0.781926 0.067459 0.781926"></polygon>
            </g>
            <g id="Fill-19-Clipped" transform="translate(93.000000, 128.000000)" fill="#002B54">
                <polygon id="Fill-19" points="0.2268033 47.513986 3.2115574 47.513986 3.2115574 0.781926 0.2268033 0.781926"></polygon>
            </g>
            <g id="Fill-20-Clipped" transform="translate(98.000000, 128.000000)" fill="#002B54">
                <polygon id="Fill-20" points="3.371361 59.535094 0.3866066 58.134331 0.3866066 0.782155 3.371361 0.782155"></polygon>
            </g>
            <g id="Fill-21-Clipped" transform="translate(104.000000, 129.000000)" fill="#002B54">
                <polygon id="Fill-21" points="3 54 0 52.7469586 0 0 3 0"></polygon>
            </g>
            <g id="Fill-22-Clipped" transform="translate(108.000000, 128.000000)" fill="#002B54">
                <polygon id="Fill-22" points="0.70541 26.808145 3.690738 26.808145 3.690738 0.781926 0.70541 0.781926"></polygon>
            </g>
            <g id="Fill-23-Clipped" transform="translate(113.000000, 128.000000)" fill="#002B54">
                <polygon id="Fill-23" points="0.865328 26.808145 3.850082 26.808145 3.850082 0.781926 0.865328 0.781926"></polygon>
            </g>
            <g id="Fill-25-Clipped" transform="translate(152.000000, 152.000000)" fill="#005289">
                <polygon id="Fill-25" points="0 31 38 31 38 0 0 0"></polygon>
            </g>
            <g id="Fill-26-Clipped" transform="translate(107.000000, 147.000000)" fill="#00427E">
                <polygon id="Fill-26" points="0 41 46 41 46 0 0 0"></polygon>
            </g>
            <g id="Fill-29-Clipped" transform="translate(152.000000, 167.000000)" fill="#003E6E">
                <polygon id="Fill-29" points="0 21 74 21 74 0 0 0"></polygon>
            </g>
            <g id="Fill-30-Clipped" transform="translate(20.000000, 186.000000)" fill="#FFFFFF">
                <polygon id="Fill-30" points="0 3 218 3 218 0 0 0"></polygon>
            </g>
            <g id="Fill-31-Clipped" transform="translate(90.000000, 155.000000)" fill="#FFFFFF">
                <polygon id="Fill-31" points="0.7027869 0.388462 41.334918 16.2420729 41.256311 33.097194 0.7027869 33.097194"></polygon>
            </g>
            <g id="Fill-33-Clipped" transform="translate(200.000000, 170.000000)" fill="#FFFFFF">
                <polygon id="Fill-33" points="0 18 38 18 38 0 0 0"></polygon>
            </g>
            <g id="Fill-35-Clipped" transform="translate(146.000000, 141.000000)" fill="#FFFFFF">
                <polygon id="Fill-35" points="0 48 13 48 13 0 0 0"></polygon>
            </g>
            <g id="Fill-36-Clipped" transform="translate(142.000000, 140.000000)" fill="#FFFFFF">
                <polygon id="Fill-36" points="0.166557 8.830102 19.973115 8.830102 19.973115 0.45247 0.166557 0.45247"></polygon>
            </g>
            <g id="Fill-37-Clipped" transform="translate(203.000000, 124.000000)" fill="#002B54">
                <polygon id="Fill-37" points="0.703443 3.748698 20.983934 3.748698 20.983934 0.681123 0.703443 0.681123"></polygon>
            </g>
            <g id="Fill-40-Clipped" transform="translate(203.000000, 141.000000)" fill="#002B54">
                <polygon id="Fill-40" points="0.703443 3.974705 20.983934 3.974705 20.983934 0.907704 0.703443 0.907704"></polygon>
            </g>
            <g id="Fill-41-Clipped" transform="translate(203.000000, 147.000000)" fill="#002B54">
                <polygon id="Fill-41" points="0.703443 3.71709 20.983934 3.71709 20.983934 0.649516 0.703443 0.649516"></polygon>
            </g>
            <g id="Fill-42-Clipped" transform="translate(203.000000, 153.000000)" fill="#002B54">
                <polygon id="Fill-42" points="0.703443 3.458902 20.983934 3.458902 20.983934 0.391327 0.703443 0.391327"></polygon>
            </g>
            <g id="Fill-43-Clipped" transform="translate(102.000000, 59.000000)" fill="#0060A2">
                <path d="M6.12845723,10.9987261 C6.12845723,6.45072788 8.03507935,2.54951235 10.7539113,0.87334904 C11.2888928,0.54375921 10.8628969,0.0256490137 10.3204562,0 C4.58940184,0.188947792 0,5.0408869 0,10.9987261 C0,16.9471607 4.57448365,21.793115 10.2926916,21.9970247 C11.1728626,22.0496052 11.1504851,21.3929904 10.5591467,20.999278 C7.94432711,19.2598471 6.12845723,15.4372885 6.12845723,10.9987261" id="Fill-43"></path>
            </g>
            <g id="Fill-44-Clipped" transform="translate(13.000000, 153.000000)" fill="#FFFFFF">
                <path d="M36.3201639,6.363465 C36.3201639,9.559476 33.7284426,12.15 30.5308197,12.15 L6.3584426,12.15 C3.1602459,12.15 0.5685246,9.559476 0.5685246,6.363465 C0.5685246,3.168027 3.1602459,0.578077 6.3584426,0.578077 L30.5308197,0.578077 C33.7284426,0.578077 36.3201639,3.168027 36.3201639,6.363465" id="Fill-44"></path>
            </g>
            <g id="Fill-45-Clipped" transform="translate(206.000000, 173.000000)" fill="#00427E">
                <polygon id="Fill-45" points="0.746148 4.882039 2.708443 4.882039 2.708443 0.706698 0.746148 0.706698"></polygon>
            </g>
            <g id="Fill-46-Clipped" transform="translate(206.000000, 180.000000)" fill="#00427E">
                <polygon id="Fill-46" points="0.746148 4.391031 2.708443 4.391031 2.708443 0.215116 0.746148 0.215116"></polygon>
            </g>
            <g id="Fill-48-Clipped" transform="translate(213.000000, 173.000000)" fill="#00427E">
                <polygon id="Fill-48" points="0.45123 4.882039 2.414098 4.882039 2.414098 0.706698 0.45123 0.706698"></polygon>
            </g>
            <g id="Fill-51-Clipped" transform="translate(104.000000, 177.000000)" fill="#003E6E">
                <polygon id="Fill-51" points="0.967869 4.037914 4.086311 4.037914 4.086311 0.72092 0.967869 0.72092"></polygon>
            </g>
            <g id="Fill-52-Clipped" transform="translate(99.000000, 171.000000)" fill="#003E6E">
                <polygon id="Fill-52" points="0.982377 4.202069 4.10082 4.202069 4.10082 0.885075 0.982377 0.885075"></polygon>
            </g>
            <g id="Fill-53-Clipped" transform="translate(95.000000, 166.000000)" fill="#003E6E">
                <polygon id="Fill-53" points="0.5597541 4.291656 3.6781967 4.291656 3.6781967 0.974662 0.5597541 0.974662"></polygon>
            </g>
            <g id="Fill-54-Clipped" transform="translate(124.000000, 177.000000)" fill="#003E6E">
                <polygon id="Fill-54" points="0.206393 4.037914 3.324836 4.037914 3.324836 0.72092 0.206393 0.72092"></polygon>
            </g>
            <g id="Fill-56-Clipped" transform="translate(111.000000, 151.000000)" fill="#002B54">
                <polygon id="Fill-56" points="0.491066 3.540378 34.344672 3.540378 34.344672 0.487711 0.491066 0.487711"></polygon>
            </g>
            <g id="Fill-57-Clipped" transform="translate(111.000000, 157.000000)" fill="#002B54">
                <polygon id="Fill-57" points="0.491066 3.25524 34.344672 3.25524 34.344672 0.202574 0.491066 0.202574"></polygon>
            </g>
            <g id="Fill-58-Clipped" transform="translate(113.000000, 162.000000)" fill="#002B54">
                <polygon id="Fill-58" points="32.344615 3.970734 6.361418 3.970734 0.027566 0.918067 32.344615 0.918067"></polygon>
            </g>
            <g id="Fill-59-Clipped" transform="translate(124.000000, 168.000000)" fill="#002B54">
                <polygon id="Fill-59" points="21.344615 3.686055 7.287811 3.686055 0.914943 0.633388 21.344615 0.633388"></polygon>
            </g>
            <g id="Fill-60-Clipped" transform="translate(131.000000, 174.000000)" fill="#002B54">
                <polygon id="Fill-60" points="0.32 3.401548 14.344672 3.401548 14.344672 0.348882 0.32 0.348882"></polygon>
            </g>
            <g id="Fill-75-Clipped" transform="translate(133.000000, 56.000000)" fill="#0060A2">
                <path d="M2.186664,1.0264332 C2.436828,1.0963854 2.436828,1.2104877 2.186664,1.2804398 L1.53027,1.9358114 C1.46027,2.1863777 1.34609,2.1863777 1.276664,1.9358114 L0.62027,1.2804398 C0.370107,1.2104877 0.370107,1.0963854 0.619697,1.0264332 L1.276664,0.3699149 C1.34609,0.1204953 1.46027,0.1204953 1.53027,0.3699149 L2.186664,1.0264332 Z" id="Fill-75"></path>
            </g>
            <g id="Fill-78-Clipped" transform="translate(157.000000, 72.000000)" fill="#0060A2">
                <path d="M3.340377,2.0365346 C3.809148,2.1678382 3.809148,2.3822818 3.339803,2.5135854 L2.10677,3.7457756 C1.974803,4.2153726 1.760213,4.2153726 1.629393,3.7457756 L0.396361,2.5135854 C-0.073557,2.3822818 -0.073557,2.1678382 0.395213,2.0365346 L1.629393,0.803771 C1.760213,0.3347475 1.974803,0.3347475 2.10677,0.803771 L3.340377,2.0365346 Z" id="Fill-78"></path>
            </g>
            <g id="Fill-79-Clipped" transform="translate(145.000000, 97.000000)" fill="#003E6E">
                <path d="M4.093574,2.2898631 C4.562344,2.4211667 4.562344,2.6361836 4.093,2.7674873 L2.859967,3.9996775 C2.728,4.4687011 2.51341,4.4687011 2.38259,3.9996775 L1.148984,2.7674873 C0.679639,2.6361836 0.679639,2.4211667 1.14841,2.2898631 L2.38259,1.0576729 C2.51341,0.588076 2.728,0.588076 2.859967,1.0576729 L4.093574,2.2898631 Z" id="Fill-79"></path>
            </g>
            <g id="Fill-88-Clipped" transform="translate(103.000000, 117.000000)" fill="#003E6E">
                <polygon id="Fill-88" points="0.546066 8.240741 19.009426 8.240741 19.009426 0.5121731 0.546066 0.5121731"></polygon>
            </g>
            <g id="Fill-89-Clipped" transform="translate(16.930328, 63.000000)" fill="#000000">
                <path d="M74.3601557,33.909884 C74.4043361,29.2609318 70.7184344,25.451979 66.0915492,25.3057675 C65.1981885,18.2979366 60.8742541,12.3646168 54.851959,9.2385577 L54.851959,6.6755561 C54.851959,2.2840509 52.4438443,0.9601201 50.1642541,0.9601201 C48.1072869,0.9601201 46.381959,4.0655376 44.4374508,4.4497012 C42.4338443,4.8459056 39.6539262,2.6441325 37.8109754,3.4078726 C35.9358934,4.1848003 35.531959,7.7133711 33.8651557,8.8285921 C32.1851557,9.9524138 28.7695,8.9822575 27.3454016,10.4053827 C25.9207295,11.8285079 26.8915492,15.242403 25.766959,16.921255 C24.6509754,18.5869193 21.1199918,18.9905777 20.341959,20.8643783 C19.5776967,22.7066432 21.7809754,25.4846616 21.3845,27.486899 C21.3431885,27.5815064 21.301877,27.6738204 21.2611393,27.7655609 C20.0648279,27.800537 17.6836803,28.080919 16.8861393,29.7184878 C16.1012213,31.327961 17.2923689,33.3301984 18.0078607,34.3123956 C16.8035164,34.350812 14.4510574,34.6380746 13.6586803,36.2641757 C12.8800738,37.861608 14.047123,39.8460707 14.7643361,40.8362952 C13.5490902,40.8792986 11.2390902,41.1774553 10.4553197,42.7857818 C9.681877,44.3723199 10.827123,46.3390078 11.5454836,47.3361129 C10.3147459,47.3877169 8.069582,47.7030751 7.299582,49.2838793 C6.5714672,50.7781035 7.546877,52.612341 8.2623689,53.6535962 C7.0017951,53.7310023 4.9454016,54.0928041 4.2155656,55.5910419 C3.4082705,57.247532 4.6946639,59.324882 5.4004016,60.272677 L5.3860574,60.302492 C4.1312213,60.372444 2.0163033,60.722205 1.274418,62.244525 C0.5348279,63.761684 1.5526967,65.632045 2.2710574,66.664126 L0.1090902,71.08086 L15.1005656,67.701941 L15.1005656,100.534735 L49.1825328,100.534735 L49.1825328,60.02039 L49.1854016,60.019817 L49.1854016,48.7443303 C53.6676967,47.8716483 57.6422049,45.5850152 60.6281066,42.3666422 L66.2688443,42.3632019 L66.267123,42.3408401 C70.7390902,42.1097686 74.317123,38.4447338 74.3601557,33.909884" id="Fill-89"></path>
            </g>
            <path d="M79,77 C78.8911279,76.8721427 78.7799637,76.744832 78.6665075,76.6191603 C75.5911566,73.2101812 71.3583229,71.3125398 67,71" id="Stroke-92" stroke="#002B54" stroke-width="3" stroke-linecap="round" stroke-linejoin="round"></path>
            <g id="Group-118" transform="translate(67.000000, 95.000000)">
                <g id="Group-96" transform="translate(5.737705, 0.000000)">
                    <g id="Fill-94-Clipped">
                        <g>
                            <mask id="mask-2" fill="white">
                                <use xlink:href="#path-1"></use>
                            </mask>
                            <g id="path-1"></g>
                            <path d="M0.297098361,0.58140571 L1.3482459,2.15246256 C1.53242623,2.4276842 1.93865574,2.42252379 2.11652459,2.14386188 L3.11545902,0.572231655 C3.30881967,0.267767719 3.09021311,-0.131303656 2.72816393,-0.131303656 L0.678081967,-0.131303656 C0.311442623,-0.131303656 0.0934098361,0.276941773 0.297098361,0.58140571" id="Fill-94" fill="#0060A2" mask="url(#mask-2)"></path>
                        </g>
                    </g>
                </g>
                <g id="Group-99" transform="translate(8.606557, 0.000000)">
                    <g id="Fill-97-Clipped">
                        <g>
                            <mask id="mask-4" fill="white">
                                <use xlink:href="#path-3"></use>
                            </mask>
                            <g id="path-3"></g>
                            <path d="M0.213844262,0.58140571 L1.26556557,2.15246256 C1.44917213,2.4276842 1.85540164,2.42252379 2.03327049,2.14386188 L3.03220492,0.572231655 C3.22613934,0.267767719 3.00695902,-0.131303656 2.64548361,-0.131303656 L0.594827869,-0.131303656 C0.228188525,-0.131303656 0.0101557377,0.276941773 0.213844262,0.58140571" id="Fill-97" fill="#0060A2" mask="url(#mask-4)"></path>
                        </g>
                    </g>
                </g>
                <g id="Group-102">
                    <g id="Fill-100-Clipped">
                        <g>
                            <mask id="mask-6" fill="white">
                                <use xlink:href="#path-5"></use>
                            </mask>
                            <g id="path-5"></g>
                            <path d="M0.432680328,0.58140571 L1.48440164,2.15246256 C1.6680082,2.4276842 2.0742377,2.42252379 2.25210656,2.14386188 L3.25104098,0.572231655 C3.44440164,0.267767719 3.22579508,-0.131303656 2.8637459,-0.131303656 L0.813663934,-0.131303656 C0.44702459,-0.131303656 0.228991803,0.276941773 0.432680328,0.58140571" id="Fill-100" fill="#0060A2" mask="url(#mask-6)"></path>
                        </g>
                    </g>
                </g>
                <g id="Group-105" transform="translate(2.868852, 0.000000)">
                    <g id="Fill-103-Clipped">
                        <g>
                            <mask id="mask-8" fill="white">
                                <use xlink:href="#path-7"></use>
                            </mask>
                            <g id="path-7"></g>
                            <path d="M0.349483607,0.58140571 L1.40120492,2.15246256 C1.58481148,2.4276842 1.99104098,2.42252379 2.16890984,2.14386188 L3.16784426,0.572231655 C3.36177869,0.267767719 3.14259836,-0.131303656 2.78054918,-0.131303656 L0.730467213,-0.131303656 C0.363827869,-0.131303656 0.145795082,0.276941773 0.349483607,0.58140571" id="Fill-103" fill="#0060A2" mask="url(#mask-8)"></path>
                        </g>
                    </g>
                </g>
                <g id="Group-108" transform="translate(11.475410, 0.000000)">
                    <g id="Fill-106-Clipped">
                        <g>
                            <mask id="mask-10" fill="white">
                                <use xlink:href="#path-9"></use>
                            </mask>
                            <g id="path-9"></g>
                            <path d="M0.130647541,0.58140571 L1.18179508,2.15246256 C1.36597541,2.4276842 1.77220492,2.42252379 1.95007377,2.14386188 L2.9490082,0.572231655 C3.14294262,0.267767719 2.9237623,-0.131303656 2.56228689,-0.131303656 L0.511631148,-0.131303656 C0.144991803,-0.131303656 -0.0730409836,0.276941773 0.130647541,0.58140571" id="Fill-106" fill="#0060A2" mask="url(#mask-10)"></path>
                        </g>
                    </g>
                </g>
                <g id="Group-111" transform="translate(13.770492, 0.000000)">
                    <g id="Fill-109-Clipped">
                        <g>
                            <mask id="mask-12" fill="white">
                                <use xlink:href="#path-11"></use>
                            </mask>
                            <g id="path-11"></g>
                            <path d="M0.621221311,0.58140571 L1.67294262,2.15246256 C1.85654918,2.4276842 2.26335246,2.42252379 2.44064754,2.14386188 L3.43958197,0.572231655 C3.63351639,0.267767719 3.41433607,-0.131303656 3.05286066,-0.131303656 L1.00220492,-0.131303656 C0.635565574,-0.131303656 0.417532787,0.276941773 0.621221311,0.58140571" id="Fill-109" fill="#0060A2" mask="url(#mask-12)"></path>
                        </g>
                    </g>
                </g>
                <g id="Group-114" transform="translate(16.639344, 0.000000)">
                    <g id="Fill-112-Clipped">
                        <g>
                            <mask id="mask-14" fill="white">
                                <use xlink:href="#path-13"></use>
                            </mask>
                            <g id="path-13"></g>
                            <path d="M0.53802459,0.58140571 L1.5897459,2.15246256 C1.77392623,2.4276842 2.18015574,2.42252379 2.35745082,2.14386188 L3.35638525,0.572231655 C3.55031967,0.267767719 3.33113934,-0.131303656 2.96966393,-0.131303656 L0.919008197,-0.131303656 C0.552368852,-0.131303656 0.334336066,0.276941773 0.53802459,0.58140571" id="Fill-112" fill="#0060A2" mask="url(#mask-14)"></path>
                        </g>
                    </g>
                </g>
                <g id="Group-117" transform="translate(19.508197, 0.000000)">
                    <g id="Fill-115-Clipped">
                        <g>
                            <mask id="mask-16" fill="white">
                                <use xlink:href="#path-15"></use>
                            </mask>
                            <g id="path-15"></g>
                            <path d="M0.454827869,0.58140571 L1.50654918,2.15246256 C1.69072951,2.4276842 2.09695902,2.42252379 2.2742541,2.14386188 L3.27318852,0.572231655 C3.46712295,0.267767719 3.24794262,-0.131303656 2.88646721,-0.131303656 L0.836385246,-0.131303656 C0.469172131,-0.131303656 0.251139344,0.276941773 0.454827869,0.58140571" id="Fill-115" fill="#0060A2" mask="url(#mask-16)"></path>
                        </g>
                    </g>
                </g>
            </g>
            <path d="M63,85.5 C63,87.432587 61.4331428,89 59.5,89 C57.5668572,89 56,87.432587 56,85.5 C56,83.5668572 57.5668572,82 59.5,82 C61.4331428,82 63,83.5668572 63,85.5 Z" id="Fill-119" fill="#BFD730"></path>
            <path d="M84,85.5 C84,87.432587 82.4332672,89 80.500278,89 C78.5672886,89 77,87.432587 77,85.5 C77,83.5668572 78.5672886,82 80.500278,82 C82.4332672,82 84,83.5668572 84,85.5" id="Fill-121" fill="#BFD730"></path>
            <path d="M16.8117602,141 L44.1882398,141 C47.3978402,141 50,143.686442 50,146.999999 C50,150.314155 47.3978402,153 44.1882398,153 L16.8117602,153 C13.6021598,153 11,150.314155 11,146.999999 C11,143.686442 13.6021598,141 16.8117602,141" id="Fill-132" fill="#002F62"></path>
            <polygon id="Fill-133" fill="#FFFFFF" points="29 189 68 189 68 129 29 129"></polygon>
            <polygon id="Fill-140" fill="#00427E" points="174 160 176 160 176 156 174 156"></polygon>
            <polygon id="Fill-142" fill="#00427E" points="164 160 166 160 166 156 164 156"></polygon>
            <polygon id="Fill-144" fill="#00427E" points="182 160 184 160 184 156 182 156"></polygon>
            <polygon id="Fill-145" fill="#002B54" points="37 139 64 139 64 136 37 136"></polygon>
            <polygon id="Fill-146" fill="#002B54" points="37 145 64 145 64 142 37 142"></polygon>
            <polygon id="Fill-147" fill="#002B54" points="37 151 64 151 64 148 37 148"></polygon>
            <polygon id="Fill-148" fill="#002B54" points="37 156 64 156 64 153 37 153"></polygon>
            <polygon id="Fill-149" fill="#002B54" points="37 162 64 162 64 159 37 159"></polygon>
            <path d="M173,97.9999999 C173,94.5708083 163.486262,87 145.132352,87 C128.556883,87 125,94.0413811 125,97.9999999 C125,101.958619 128.556883,109 145.132352,109 C163.486262,109 173,101.429192 173,97.9999999" id="Fill-151" fill="#0060A2"></path>
            <path d="M163,90.1475356 C163,90.1475356 167.778999,88.5294557 170.008751,89.1360877 C172.239062,89.7427198 170.008751,95 170.008751,95 L163,90.1475356 Z" id="Fill-152" fill="#0060A2"></path>
            <path d="M163,105.853358 C163,105.853358 167.778999,107.470552 170.008751,106.863808 C172.239062,106.258248 170.008751,101 170.008751,101 L163,105.853358 Z" id="Fill-153" fill="#0060A2"></path>
            <path d="M145,110.079336 C145,111.693506 143.66434,113 142.015427,113 L134.983995,113 C133.335659,113 132,111.693506 132,110.079336 L132,104.920664 C132,103.307625 133.335659,102 134.983995,102 L139.934201,102 C141.583114,102 145,103.307625 145,104.920664 L145,110.079336 Z" id="Fill-154" fill="#0060A2"></path>
            <path d="M137,110 C137,110.552323 136.552208,111 136.000255,111 C135.447792,111 135,110.552323 135,110 C135,109.447677 135.447792,109 136.000255,109 C136.552208,109 137,109.447677 137,110" id="Fill-155" fill="#E5F4F8"></path>
            <path d="M141,110 C141,110.552323 140.552209,111 140.000256,111 C139.447792,111 139,110.552323 139,110 C139,109.447677 139.447792,109 140.000256,109 C140.552209,109 141,109.447677 141,110" id="Fill-156" fill="#E5F4F8"></path>
            <path d="M153,98.499456 C153,102.641044 149.642132,106 145.5,106 C141.357868,106 138,102.641044 138,98.499456 C138,94.357868 141.357868,91 145.5,91 C149.642132,91 153,94.357868 153,98.499456" id="Fill-158" fill="#FFFFFF"></path>
            <path d="M148,103 L150,103 L150,101.001187 L148,101.001187 L148,103 Z M148,100.034708 L150,100.034708 L150,95 L148,95 L148,100.034708 Z" id="Fill-159" fill="#0060A2" fill-rule="nonzero"></path>
            <polygon id="Fill-160" fill="#0060A2" points="141 95 141 97.0000001 142.999406 97.0000001 142.999406 103 144.999407 103 144.999407 97.0000001 147 97.0000001 147 95"></polygon>
        </g>
    </g>
</svg>